<?xml version="1.0" standalone="no"?>
<!DOCTYPE svg PUBLIC "-//W3C//DTD SVG 20010904//EN"
 "http://www.w3.org/TR/2001/REC-SVG-20010904/DTD/svg10.dtd">
<svg version="1.0" xmlns="http://www.w3.org/2000/svg"
 width="248.000000pt" height="334.000000pt" viewBox="0 0 248.000000 334.000000"
 preserveAspectRatio="xMidYMid meet">

<g transform="translate(0.000000,334.000000) scale(0.100000,-0.100000)"
fill="#000000" stroke="none">
<path d="M2442 2160 c-7 -12 -9 -26 -5 -33 5 -9 3 -9 -9 0 -18 15 -28 8 -29
-21 0 -21 -1 -21 -10 -1 -8 17 -9 16 -6 -7 2 -15 0 -25 -4 -22 -5 3 -9 0 -9
-6 0 -6 -4 -8 -10 -5 -5 3 -10 1 -10 -5 0 -6 -5 -8 -12 -4 -6 4 -8 3 -5 -3 3
-5 -7 -20 -24 -32 -16 -12 -27 -26 -24 -30 5 -9 -23 -26 -37 -23 -5 1 -8 -5
-8 -14 0 -8 -4 -12 -10 -9 -9 6 -14 -8 -11 -28 1 -5 -3 -6 -9 -2 -9 6 -60 -36
-60 -50 0 -3 -11 -16 -25 -29 -28 -26 -33 -41 -9 -32 8 3 13 2 9 -3 -3 -5 -19
-12 -35 -16 l-30 -7 0 -128 c0 -97 -5 -143 -19 -189 -39 -124 -104 -200 -220
-255 -61 -29 -74 -31 -185 -33 -66 -1 -128 3 -139 9 -24 13 -58 -20 -52 -51 2
-12 -1 -21 -7 -21 -5 0 -8 7 -5 15 4 8 1 17 -5 21 -7 4 -8 3 -4 -5 4 -6 0 -14
-8 -17 -9 -3 -13 -10 -10 -15 3 -5 -4 -9 -16 -9 -12 0 -19 -4 -16 -8 7 -12
-33 -44 -46 -36 -7 4 -8 3 -4 -4 4 -7 3 -12 -3 -12 -6 0 -8 -8 -4 -17 3 -10 3
-15 -2 -11 -10 9 -47 -10 -41 -21 3 -5 -3 -16 -14 -26 -11 -10 -20 -14 -20 -9
-1 5 -8 -3 -16 -18 -8 -16 -22 -28 -30 -28 -11 0 -14 -5 -10 -17 4 -10 4 -14
0 -11 -4 4 -15 -4 -26 -17 -10 -14 -22 -24 -26 -22 -4 1 -7 -2 -7 -8 0 -5 4
-9 8 -7 5 1 6 -2 2 -7 -3 -6 -12 -8 -20 -4 -8 3 -15 1 -15 -5 0 -5 -9 -12 -21
-15 -11 -3 -23 -15 -26 -26 -3 -11 -9 -18 -14 -15 -5 3 -9 0 -9 -6 0 -6 -14
-25 -31 -43 -17 -18 -28 -25 -24 -17 6 12 5 12 -5 3 -14 -13 -4 -37 12 -27 7
4 8 2 4 -5 -4 -6 -16 -9 -27 -6 -11 4 -19 2 -19 -5 0 -6 -12 -15 -27 -21 -22
-8 -24 -12 -13 -19 12 -8 9 -10 -9 -10 -20 0 -22 -3 -13 -12 7 -7 12 -17 12
-22 0 -6 -5 -4 -10 4 -7 12 -13 12 -27 4 -10 -6 -17 -14 -15 -19 2 -4 -4 -13
-14 -19 -10 -8 -15 -20 -11 -29 5 -14 2 -15 -19 -7 -14 6 -23 6 -20 1 4 -5 0
-12 -6 -14 -7 -3 373 -6 845 -6 l857 -1 0 850 c0 468 -3 850 -8 850 -4 0 -13
-9 -20 -20z m-1365 -1392 c-3 -8 -6 -5 -6 6 -1 11 2 17 5 13 3 -3 4 -12 1 -19z"/>
</g>
</svg>
